<svg width="40" height="40" viewBox="0 0 40 40" fill="none" xmlns="http://www.w3.org/2000/svg">
<path d="M21.1885 18.856L2.96443 8.26796C1.9636 7.6857 1.13351 8.08568 1.01552 9.14501C1.00621 9.22938 1 9.31687 1 9.40958V30.5909C1 31.846 1.88388 32.3596 2.9634 31.7325L20.8409 21.3424L21.1897 21.1403C22.2703 20.5132 22.2703 19.4852 21.1887 18.856L21.1885 18.856Z" fill="#181818"/>
<path d="M36.1885 18.856L17.9644 8.26796C16.9636 7.6857 16.1335 8.08568 16.0155 9.14501C16.0062 9.22938 16 9.31687 16 9.40958V30.5909C16 31.846 16.8839 32.3596 17.9634 31.7325L35.8409 21.3424L36.1897 21.1403C37.2703 20.5132 37.2703 19.4852 36.1887 18.856L36.1885 18.856Z" fill="#181818"/>
<rect x="36" y="7" width="4" height="26" rx="2" fill="#181818"/>
</svg>
