<svg width="40" height="40" viewBox="0 0 40 40" fill="none" xmlns="http://www.w3.org/2000/svg">
<path d="M18.8115 18.856L37.0356 8.26796C38.0364 7.6857 38.8665 8.08568 38.9845 9.14501C38.9938 9.22938 39 9.31687 39 9.40958V30.5909C39 31.846 38.1161 32.3596 37.0366 31.7325L19.1591 21.3424L18.8103 21.1403C17.7297 20.5132 17.7297 19.4852 18.8113 18.856L18.8115 18.856Z" fill="#181818"/>
<path d="M3.81146 18.856L22.0356 8.26796C23.0364 7.6857 23.8665 8.08568 23.9845 9.14501C23.9938 9.22938 24 9.31687 24 9.40958V30.5909C24 31.846 23.1161 32.3596 22.0366 31.7325L4.15906 21.3424L3.81027 21.1403C2.72974 20.5132 2.72974 19.4852 3.8113 18.856L3.81146 18.856Z" fill="#181818"/>
<rect width="4" height="26" rx="2" transform="matrix(-1 0 0 1 4 7)" fill="#181818"/>
</svg>
